# xmcd CD database file
#
# Track frame offsets:
#	182
#	17815
#	32045
#	42012
#	60317
#	76907
#	95790
#	113882
#	132782
#	148845
#	165382
#	185280
#	198360
#	208400
#	227210
#
# Disc length: 3293 seconds
#
# Revision: 2
# Processed by: cddbd v1.4PL0 Copyright (c) Steve Scherf et al.
# Submitted via: CDex 1.50
#
DISCID=cb0cdb0f
DTITLE=Bellamy Brothers - Native American
DYEAR=1995
DGENRE=Country
TTITLE0=Shine Them Buckles
TTITLE1=Big Hair
TTITLE2=Pit Bulls And Chain Saws
TTITLE3=Blue Rodeo
TTITLE4=Twang Town
TTITLE5=She's Awesome
TTITLE6=Old Hippie (The Sequel)
TTITLE7=Native American
TTITLE8=Feel Free
TTITLE9=Too Much Fun
TTITLE10=We Dared The Lightning
TTITLE11=Elvis, Marilyn And James Dean
TTITLE12=Gotta Get A Little Crazy
TTITLE13=Jesus Is Coming
TTITLE14=Native American (Single Version)
EXTD=YEAR: 1995
EXTT0=
EXTT1=
EXTT2=
EXTT3=
EXTT4=
EXTT5=
EXTT6=
EXTT7=
EXTT8=
EXTT9=
EXTT10=
EXTT11=
EXTT12=
EXTT13=
EXTT14=
PLAYORDER=
